<svg xmlns="http://www.w3.org/2000/svg" viewBox="0 0 300 300"><path fill="#fff" d="M0 0h300v300H0z" class="logo-background-square"/><g><path d="M152.32395 141.32l3.52 30.24h3.08l-4.76-40.6-15.68 30.36-15.68-30.36-4.76 40.6h3.08l3.52-30.24 13.84 26.6zm30.68 20.16c0 2.12-.76 3.96-2.28 5.48-1.56 1.48-3.44 2.24-5.68 2.24-2.24 0-3.76-.6-4.56-1.8-.8-1.24-1.2-3-1.2-5.36V145.8h-2.8v16.8c0 3.28.68 5.68 2 7.16 1.32 1.52 3.32 2.24 6 2.24 4.12 0 6.96-1.6 8.52-4.88v4.44h2.8V145.8h-2.8zm25.76-12.88l-17.64 22.96h22.12v-2.8h-16.52l17.64-22.96h-22.12v2.8zm10.92-14.28c0 .6.2 1.12.6 1.52.44.4.92.6 1.52.6s1.12-.2 1.52-.6c.4-.4.6-.92.6-1.52s-.2-1.12-.6-1.52c-.4-.4-.92-.6-1.52-.6s-1.08.2-1.52.6c-.4.4-.6.92-.6 1.52zm.72 11.48v25.76h2.8V145.8zm12.2-17.92v43.68h2.8v-13.88l12.32 13.88h3.92l-13.44-15.12 12.32-10.64h-3.92l-11.2 9.68v-27.6zm24.44 22.68c2.4-1.76 5.16-2.64 8.24-2.64 4.16 0 6.24 1.72 6.24 5.16v4.32c-2-1.04-4.32-1.56-6.92-1.56-2.8 0-5.28.72-7.44 2.16-2.2 1.48-3.28 3.48-3.28 6 0 2.64.92 4.68 2.72 6.04 1.76 1.4 3.72 2.08 5.88 2.08 2.2 0 4.12-.44 5.72-1.36 1.64-.92 2.72-2.2 3.32-3.84v4.64h2.8v-18.48c0-5.24-3-7.84-9.04-7.84-3.68 0-6.96 1.08-9.88 3.2zm-.28 13.44c0-1.84.72-3.28 2.24-4.32 1.48-1.04 3.44-1.56 5.8-1.56 2.2 0 4.44.44 6.72 1.28v2.08c0 2.36-.8 4.28-2.4 5.8-1.6 1.52-3.52 2.28-5.8 2.28-2 0-3.6-.52-4.76-1.52-1.2-1-1.8-2.36-1.8-4.04z"/></g><linearGradient id="a" x1="0%" y1="0%" y2="0%" gradientTransform="rotate(25)"><stop offset="0%" stop-color="#41e296"/><stop offset="100%" stop-color="#00c4ee"/></linearGradient><g fill="url(#a)" transform="matrix(.22123 0 0 .22123 39.99988 116.82)"><svg xmlns="http://www.w3.org/2000/svg" xmlns:xlink="http://www.w3.org/1999/xlink" viewBox="0 0 100 100"><g><path fill-rule="evenodd" d="M47.102 0h5.784c8.338.642 15.042 2.917 20.99 5.95-9.545 9.958-19.296 19.708-29.253 29.252-2.969-3.846-6.214-6.932-13.221-6.279-6.848.638-12.008 6.789-12.065 13.552-.093 11.1 12.636 17.426 21.981 11.239 2.455-1.625 4.708-4.378 6.941-6.611 6.658-6.659 13.369-13.473 19.997-20.164 5.471 4.927 10.706 10.542 16.196 16.032.574.574 2.305 1.916 2.314 2.148.021.503-3.571 3.738-3.967 4.132-4.035 4.035-8.129 8.161-12.23 11.9-2.845-5.982-12.565-8.104-18.84-4.297-3.834 2.326-6.286 6.06-6.446 11.238-.221 7.125 4.855 13.32 11.9 14.047 9.767 1.009 13.735-5.969 18.51-10.742 8.042-8.042 16.394-16.425 24.295-23.963.308 16.392-5.383 28.214-13.388 36.524-8.017 8.322-18.679 14.98-33.715 16.03h-5.784c-14.023-1.231-24.828-6.812-32.558-14.543C6.814 77.715 1.225 66.916 0 52.887v-5.785C.812 33.583 7.182 22 14.709 14.544 22.682 6.645 33.328 1.089 47.102 0z" clip-rule="evenodd"/></g></svg></g></svg>
