<?xml version="1.0" encoding="UTF-8"?>
<svg xmlns="http://www.w3.org/2000/svg" xmlns:xlink="http://www.w3.org/1999/xlink" width="150pt" height="150pt" viewBox="0 0 150 150" version="1.1">
<defs>
<clipPath id="clip1">
  <path d="M 20 58.410156 L 53.183594 58.410156 L 53.183594 91.59375 L 20 91.59375 Z M 20 58.410156 "/>
</clipPath>
<linearGradient id="linear0" gradientUnits="userSpaceOnUse" x1="0" y1="0" x2="1" y2="0" gradientTransform="matrix(30.071009,14.022342,-14.022342,30.071009,20,58.410156)">
<stop offset="0" style="stop-color:rgb(25.490196%,88.627451%,58.823529%);stop-opacity:1;"/>
<stop offset="1" style="stop-color:rgb(0%,76.862745%,93.333333%);stop-opacity:1;"/>
</linearGradient>
</defs>
<g id="surface1">
<rect x="0" y="0" width="150" height="150" style="fill:rgb(100%,100%,100%);fill-opacity:1;stroke:none;"/>
<path style=" stroke:none;fill-rule:nonzero;fill:rgb(0%,0%,0%);fill-opacity:1;" d="M 76.160156 70.660156 L 77.921875 85.78125 L 79.460938 85.78125 L 77.082031 65.480469 L 69.242188 80.660156 L 61.402344 65.480469 L 59.023438 85.78125 L 60.5625 85.78125 L 62.320312 70.660156 L 69.242188 83.960938 Z M 91.503906 80.738281 C 91.503906 81.800781 91.121094 82.71875 90.363281 83.480469 C 89.582031 84.21875 88.640625 84.601562 87.523438 84.601562 C 86.402344 84.601562 85.640625 84.300781 85.242188 83.699219 C 84.84375 83.078125 84.640625 82.199219 84.640625 81.019531 L 84.640625 72.898438 L 83.242188 72.898438 L 83.242188 81.300781 C 83.242188 82.941406 83.582031 84.140625 84.242188 84.878906 C 84.902344 85.640625 85.902344 86 87.242188 86 C 89.300781 86 90.722656 85.199219 91.503906 83.558594 L 91.503906 85.78125 L 92.902344 85.78125 L 92.902344 72.898438 L 91.503906 72.898438 Z M 104.382812 74.300781 L 95.5625 85.78125 L 106.621094 85.78125 L 106.621094 84.378906 L 98.363281 84.378906 L 107.183594 72.898438 L 96.121094 72.898438 L 96.121094 74.300781 Z M 109.84375 67.160156 C 109.84375 67.460938 109.941406 67.71875 110.140625 67.921875 C 110.363281 68.121094 110.601562 68.21875 110.902344 68.21875 C 111.203125 68.21875 111.460938 68.121094 111.660156 67.921875 C 111.863281 67.71875 111.960938 67.460938 111.960938 67.160156 C 111.960938 66.859375 111.863281 66.601562 111.660156 66.398438 C 111.460938 66.199219 111.203125 66.101562 110.902344 66.101562 C 110.601562 66.101562 110.363281 66.199219 110.140625 66.398438 C 109.941406 66.601562 109.84375 66.859375 109.84375 67.160156 Z M 110.203125 72.898438 L 110.203125 85.78125 L 111.601562 85.78125 L 111.601562 72.898438 Z M 116.300781 63.941406 L 116.300781 85.78125 L 117.703125 85.78125 L 117.703125 78.839844 L 123.863281 85.78125 L 125.820312 85.78125 L 119.101562 78.21875 L 125.261719 72.898438 L 123.300781 72.898438 L 117.703125 77.738281 L 117.703125 63.941406 Z M 128.523438 75.28125 C 129.722656 74.398438 131.101562 73.960938 132.640625 73.960938 C 134.722656 73.960938 135.761719 74.820312 135.761719 76.539062 L 135.761719 78.699219 C 134.761719 78.179688 133.601562 77.921875 132.300781 77.921875 C 130.902344 77.921875 129.660156 78.28125 128.582031 79 C 127.480469 79.738281 126.941406 80.738281 126.941406 82 C 126.941406 83.320312 127.402344 84.339844 128.300781 85.019531 C 129.183594 85.71875 130.160156 86.058594 131.242188 86.058594 C 132.34375 86.058594 133.300781 85.839844 134.101562 85.378906 C 134.921875 84.921875 135.460938 84.28125 135.761719 83.460938 L 135.761719 85.78125 L 137.160156 85.78125 L 137.160156 76.539062 C 137.160156 73.921875 135.660156 72.621094 132.640625 72.621094 C 130.800781 72.621094 129.160156 73.160156 127.703125 74.21875 Z M 128.382812 82 C 128.382812 81.078125 128.742188 80.359375 129.503906 79.839844 C 130.242188 79.320312 131.222656 79.058594 132.402344 79.058594 C 133.503906 79.058594 134.621094 79.28125 135.761719 79.699219 L 135.761719 80.738281 C 135.761719 81.921875 135.363281 82.878906 134.5625 83.640625 C 133.761719 84.398438 132.800781 84.78125 131.660156 84.78125 C 130.660156 84.78125 129.863281 84.519531 129.28125 84.019531 C 128.683594 83.519531 128.382812 82.839844 128.382812 82 Z M 128.382812 82 "/>
<g clip-path="url(#clip1)" clip-rule="nonzero">
<path style=" stroke:none;fill-rule:evenodd;fill:url(#linear0);" d="M 35.628906 58.410156 L 37.550781 58.410156 C 40.316406 58.621094 42.542969 59.378906 44.515625 60.382812 C 41.347656 63.6875 38.113281 66.925781 34.808594 70.089844 C 33.824219 68.816406 32.746094 67.792969 30.421875 68.007812 C 28.148438 68.21875 26.4375 70.261719 26.417969 72.503906 C 26.386719 76.1875 30.609375 78.289062 33.710938 76.234375 C 34.527344 75.695312 35.273438 74.78125 36.015625 74.039062 C 38.222656 71.832031 40.449219 69.570312 42.648438 67.347656 C 44.464844 68.984375 46.203125 70.847656 48.023438 72.667969 C 48.214844 72.859375 48.789062 73.304688 48.792969 73.382812 C 48.800781 73.550781 47.609375 74.621094 47.476562 74.753906 C 46.136719 76.09375 44.777344 77.460938 43.417969 78.703125 C 42.472656 76.71875 39.25 76.011719 37.164062 77.277344 C 35.894531 78.046875 35.078125 79.289062 35.027344 81.007812 C 34.953125 83.371094 36.636719 85.425781 38.976562 85.667969 C 42.21875 86.003906 43.535156 83.6875 45.117188 82.101562 C 47.785156 79.433594 50.558594 76.652344 53.179688 74.152344 C 53.28125 79.589844 51.394531 83.511719 48.738281 86.269531 C 46.078125 89.03125 42.539062 91.242188 37.550781 91.589844 L 35.628906 91.589844 C 30.976562 91.183594 27.390625 89.328125 24.824219 86.765625 C 22.261719 84.199219 20.40625 80.617188 20 75.960938 L 20 74.039062 C 20.269531 69.554688 22.382812 65.710938 24.882812 63.238281 C 27.527344 60.613281 31.058594 58.769531 35.628906 58.410156 Z M 35.628906 58.410156 "/>
</g>
</g>
</svg>
